<svg xmlns="http://www.w3.org/2000/svg" version="1.1" xmlns:xlink="http://www.w3.org/1999/xlink" xmlns:svgjs="http://svgjs.com/svgjs" width="1440" height="560" preserveAspectRatio="none" viewBox="0 0 1440 560"><g mask="url(&quot;#SvgjsMask1090&quot;)" fill="none"><rect width="1440" height="560" x="0" y="0" fill="rgba(0, 0, 0, 1)"></rect><path d="M549.7182353787567 363.97747944933883L606.055170772399 426.54598494464176 671.7394613185322 310.7563291065268z" fill="rgba(0, 100, 255, 0.4)" class="triangle-float2"></path><path d="M1345.713798851442 140.7146608895494L1410.008848964343 154.3809956739494 1398.3608260844926 51.10525311239772z" fill="rgba(0, 100, 255, 0.4)" class="triangle-float1"></path><path d="M374.60373733239294 477.675688114243L446.1690794971866 542.1134116309819 507.04299368989814 402.54653662542194z" fill="rgba(0, 100, 255, 0.4)" class="triangle-float1"></path><path d="M1449.5885546390516 114.52472921430585L1395.9190450225965-25.289123395000516 1309.7747020297452 168.1942388307611z" fill="rgba(0, 100, 255, 0.4)" class="triangle-float2"></path><path d="M305.67904119977806 231.88556667245672L395.53984514646544 222.44081559328126 336.44231655435857 92.37198521283793z" fill="rgba(0, 100, 255, 0.4)" class="triangle-float3"></path><path d="M1042.4298480489545 171.59808890009228L1045.2294809042698 341.2546200399192 1173.6841558461265 267.0912788835724z" fill="rgba(0, 100, 255, 0.4)" class="triangle-float1"></path><path d="M200.97382677907729 263.2354488972515L73.56841491371131 206.51090487124208 144.24928275306786 390.6408607626175z" fill="rgba(0, 100, 255, 0.4)" class="triangle-float1"></path><path d="M599.7221023099191 293.61011091367476L635.1350312726153 236.9375779201942 532.4197673010464 212.15445097289026z" fill="rgba(0, 100, 255, 0.4)" class="triangle-float3"></path><path d="M152.59862293082332 430.82229713831487L24.912131058535465 495.7286085435091 128.71687971960796 565.7457956040901z" fill="rgba(0, 100, 255, 0.4)" class="triangle-float3"></path><path d="M1369.9271274819246 310.98148498009317L1299.5048566121152 323.39883137720034 1353.3420116426805 422.8235644833609z" fill="rgba(0, 100, 255, 0.4)" class="triangle-float1"></path><path d="M1159.7870105394318 427.53393746268426L1278.8991635037992 534.7830017168235 1267.036074793571 308.4217844983168z" fill="rgba(0, 100, 255, 0.4)" class="triangle-float1"></path><path d="M1040.8775722106654 48.91619563228929L1073.3873581938042 155.2509142415974 1216.634543116197 53.31887596223544z" fill="rgba(0, 100, 255, 0.4)" class="triangle-float1"></path><path d="M1403.892547203688 301.7272265551371L1310.8398542900197 295.22034839692583 1397.3856690454768 394.7799194688055z" fill="rgba(0, 100, 255, 0.4)" class="triangle-float3"></path><path d="M1079.2059095342372 523.2425322137635L1128.9926774581481 429.60724015520816 963.6463554083597 401.7447342986192z" fill="rgba(0, 100, 255, 0.4)" class="triangle-float2"></path><path d="M1328.872841803936 279.79194679487927L1299.894670787522 341.9358350832884 1407.5995887283427 354.3311474637047z" fill="rgba(0, 100, 255, 0.4)" class="triangle-float3"></path><path d="M1037.6342499483114 96.38379443975745L1035.9223447339978-1.6911896037679952 939.559265904786 98.09569965407108z" fill="rgba(0, 100, 255, 0.4)" class="triangle-float1"></path></g><defs><mask id="SvgjsMask1090"><rect width="1440" height="560" fill="#ffffff"></rect></mask><style>
            @keyframes float1 {
                0%{transform: translate(0, 0)}
                50%{transform: translate(-10px, 0)}
                100%{transform: translate(0, 0)}
            }

            .triangle-float1 {
                animation: float1 5s infinite;
            }

            @keyframes float2 {
                0%{transform: translate(0, 0)}
                50%{transform: translate(-5px, -5px)}
                100%{transform: translate(0, 0)}
            }

            .triangle-float2 {
                animation: float2 4s infinite;
            }

            @keyframes float3 {
                0%{transform: translate(0, 0)}
                50%{transform: translate(0, -10px)}
                100%{transform: translate(0, 0)}
            }

            .triangle-float3 {
                animation: float3 6s infinite;
            }
        </style></defs></svg>