<svg xmlns="http://www.w3.org/2000/svg" version="1.1" xmlns:xlink="http://www.w3.org/1999/xlink" xmlns:svgjs="http://svgjs.com/svgjs" width="1440" height="560" preserveAspectRatio="none" viewBox="0 0 1440 560"><g mask="url(&quot;#SvgjsMask1006&quot;)" fill="none"><rect width="1440" height="560" x="0" y="0" fill="rgba(0, 0, 0, 1)"></rect><path d="M-106.39 347.61L-106.39 347.61" stroke="rgba(59, 17, 119, 1)" stroke-width="1.5"></path><path d="M-106.39 347.61L-79.5 508.72" stroke="rgba(59, 17, 119, 1)" stroke-width="1.5"></path><path d="M-106.39 347.61L102.16 508.46" stroke="rgba(59, 17, 119, 1)" stroke-width="1.5"></path><path d="M-106.39 347.61L194.23 371.29" stroke="rgba(59, 17, 119, 1)" stroke-width="1.5"></path><path d="M-106.39 347.61L-61.62 654.85" stroke="rgba(59, 17, 119, 1)" stroke-width="1.5"></path><path d="M-79.5 508.72L-79.5 508.72" stroke="rgba(59, 17, 119, 1)" stroke-width="1.5"></path><path d="M-79.5 508.72L-61.62 654.85" stroke="rgba(59, 17, 119, 1)" stroke-width="1.5"></path><path d="M-79.5 508.72L102.16 508.46" stroke="rgba(59, 17, 119, 1)" stroke-width="1.5"></path><path d="M-79.5 508.72L59.63 707.36" stroke="rgba(59, 17, 119, 1)" stroke-width="1.5"></path><path d="M-61.62 654.85L-61.62 654.85" stroke="rgba(59, 17, 119, 1)" stroke-width="1.5"></path><path d="M-61.62 654.85L59.63 707.36" stroke="rgba(59, 17, 119, 1)" stroke-width="1.5"></path><path d="M-61.62 654.85L102.16 508.46" stroke="rgba(59, 17, 119, 1)" stroke-width="1.5"></path><path d="M-61.62 654.85L192.6 542.14" stroke="rgba(59, 17, 119, 1)" stroke-width="1.5"></path><path d="M102.16 508.46L102.16 508.46" stroke="rgba(59, 17, 119, 1)" stroke-width="1.5"></path><path d="M102.16 508.46L192.6 542.14" stroke="rgba(59, 17, 119, 1)" stroke-width="1.5"></path><path d="M102.16 508.46L194.23 371.29" stroke="rgba(59, 17, 119, 1)" stroke-width="1.5"></path><path d="M59.63 707.36L59.63 707.36" stroke="rgba(59, 17, 119, 1)" stroke-width="1.5"></path><path d="M59.63 707.36L258.57 678.63" stroke="rgba(59, 17, 119, 1)" stroke-width="1.5"></path><path d="M59.63 707.36L102.16 508.46" stroke="rgba(59, 17, 119, 1)" stroke-width="1.5"></path><path d="M59.63 707.36L192.6 542.14" stroke="rgba(59, 17, 119, 1)" stroke-width="1.5"></path><path d="M194.23 371.29L194.23 371.29" stroke="rgba(59, 17, 119, 1)" stroke-width="1.5"></path><path d="M194.23 371.29L192.6 542.14" stroke="rgba(59, 17, 119, 1)" stroke-width="1.5"></path><path d="M194.23 371.29L410.91 344.29" stroke="rgba(59, 17, 119, 1)" stroke-width="1.5"></path><path d="M192.6 542.14L192.6 542.14" stroke="rgba(59, 17, 119, 1)" stroke-width="1.5"></path><path d="M192.6 542.14L258.57 678.63" stroke="rgba(59, 17, 119, 1)" stroke-width="1.5"></path><path d="M192.6 542.14L365.88 506.67" stroke="rgba(59, 17, 119, 1)" stroke-width="1.5"></path><path d="M192.6 542.14L348.34 701.42" stroke="rgba(59, 17, 119, 1)" stroke-width="1.5"></path><path d="M258.57 678.63L258.57 678.63" stroke="rgba(59, 17, 119, 1)" stroke-width="1.5"></path><path d="M258.57 678.63L348.34 701.42" stroke="rgba(59, 17, 119, 1)" stroke-width="1.5"></path><path d="M258.57 678.63L365.88 506.67" stroke="rgba(59, 17, 119, 1)" stroke-width="1.5"></path><path d="M410.91 344.29L410.91 344.29" stroke="rgba(59, 17, 119, 1)" stroke-width="1.5"></path><path d="M410.91 344.29L502.69 376.33" stroke="rgba(59, 17, 119, 1)" stroke-width="1.5"></path><path d="M410.91 344.29L365.88 506.67" stroke="rgba(59, 17, 119, 1)" stroke-width="1.5"></path><path d="M410.91 344.29L525 541.8" stroke="rgba(59, 17, 119, 1)" stroke-width="1.5"></path><path d="M410.91 344.29L642.94 243.49" stroke="rgba(59, 17, 119, 1)" stroke-width="1.5"></path><path d="M365.88 506.67L365.88 506.67" stroke="rgba(59, 17, 119, 1)" stroke-width="1.5"></path><path d="M365.88 506.67L525 541.8" stroke="rgba(59, 17, 119, 1)" stroke-width="1.5"></path><path d="M365.88 506.67L502.69 376.33" stroke="rgba(59, 17, 119, 1)" stroke-width="1.5"></path><path d="M348.34 701.42L348.34 701.42" stroke="rgba(59, 17, 119, 1)" stroke-width="1.5"></path><path d="M348.34 701.42L506.11 682.29" stroke="rgba(59, 17, 119, 1)" stroke-width="1.5"></path><path d="M348.34 701.42L365.88 506.67" stroke="rgba(59, 17, 119, 1)" stroke-width="1.5"></path><path d="M502.69 376.33L502.69 376.33" stroke="rgba(59, 17, 119, 1)" stroke-width="1.5"></path><path d="M502.69 376.33L525 541.8" stroke="rgba(59, 17, 119, 1)" stroke-width="1.5"></path><path d="M502.69 376.33L642.94 243.49" stroke="rgba(59, 17, 119, 1)" stroke-width="1.5"></path><path d="M525 541.8L525 541.8" stroke="rgba(59, 17, 119, 1)" stroke-width="1.5"></path><path d="M525 541.8L656.96 537.27" stroke="rgba(59, 17, 119, 1)" stroke-width="1.5"></path><path d="M525 541.8L506.11 682.29" stroke="rgba(59, 17, 119, 1)" stroke-width="1.5"></path><path d="M525 541.8L638.89 703.7" stroke="rgba(59, 17, 119, 1)" stroke-width="1.5"></path><path d="M506.11 682.29L506.11 682.29" stroke="rgba(59, 17, 119, 1)" stroke-width="1.5"></path><path d="M506.11 682.29L638.89 703.7" stroke="rgba(59, 17, 119, 1)" stroke-width="1.5"></path><path d="M642.94 243.49L642.94 243.49" stroke="rgba(59, 17, 119, 1)" stroke-width="1.5"></path><path d="M642.94 243.49L833.39 216.8" stroke="rgba(59, 17, 119, 1)" stroke-width="1.5"></path><path d="M642.94 243.49L826.65 396.95" stroke="rgba(59, 17, 119, 1)" stroke-width="1.5"></path><path d="M642.94 243.49L860.04 94.81" stroke="rgba(59, 17, 119, 1)" stroke-width="1.5"></path><path d="M656.96 537.27L656.96 537.27" stroke="rgba(59, 17, 119, 1)" stroke-width="1.5"></path><path d="M656.96 537.27L638.89 703.7" stroke="rgba(59, 17, 119, 1)" stroke-width="1.5"></path><path d="M656.96 537.27L506.11 682.29" stroke="rgba(59, 17, 119, 1)" stroke-width="1.5"></path><path d="M656.96 537.27L826.65 396.95" stroke="rgba(59, 17, 119, 1)" stroke-width="1.5"></path><path d="M656.96 537.27L502.69 376.33" stroke="rgba(59, 17, 119, 1)" stroke-width="1.5"></path><path d="M638.89 703.7L638.89 703.7" stroke="rgba(59, 17, 119, 1)" stroke-width="1.5"></path><path d="M638.89 703.7L844.93 705.57" stroke="rgba(59, 17, 119, 1)" stroke-width="1.5"></path><path d="M860.04 94.81L860.04 94.81" stroke="rgba(59, 17, 119, 1)" stroke-width="1.5"></path><path d="M860.04 94.81L833.39 216.8" stroke="rgba(59, 17, 119, 1)" stroke-width="1.5"></path><path d="M860.04 94.81L1007.75 86.51" stroke="rgba(59, 17, 119, 1)" stroke-width="1.5"></path><path d="M860.04 94.81L981.38 190.26" stroke="rgba(59, 17, 119, 1)" stroke-width="1.5"></path><path d="M860.04 94.81L964.96 -92.75" stroke="rgba(59, 17, 119, 1)" stroke-width="1.5"></path><path d="M833.39 216.8L833.39 216.8" stroke="rgba(59, 17, 119, 1)" stroke-width="1.5"></path><path d="M833.39 216.8L981.38 190.26" stroke="rgba(59, 17, 119, 1)" stroke-width="1.5"></path><path d="M833.39 216.8L943.91 357.71" stroke="rgba(59, 17, 119, 1)" stroke-width="1.5"></path><path d="M826.65 396.95L826.65 396.95" stroke="rgba(59, 17, 119, 1)" stroke-width="1.5"></path><path d="M826.65 396.95L943.91 357.71" stroke="rgba(59, 17, 119, 1)" stroke-width="1.5"></path><path d="M844.93 705.57L844.93 705.57" stroke="rgba(59, 17, 119, 1)" stroke-width="1.5"></path><path d="M844.93 705.57L994.85 670.25" stroke="rgba(59, 17, 119, 1)" stroke-width="1.5"></path><path d="M844.93 705.57L962.17 549.24" stroke="rgba(59, 17, 119, 1)" stroke-width="1.5"></path><path d="M844.93 705.57L656.96 537.27" stroke="rgba(59, 17, 119, 1)" stroke-width="1.5"></path><path d="M844.93 705.57L1124.58 673.43" stroke="rgba(59, 17, 119, 1)" stroke-width="1.5"></path><path d="M964.96 -92.75L964.96 -92.75" stroke="rgba(59, 17, 119, 1)" stroke-width="1.5"></path><path d="M964.96 -92.75L1133.06 -105.54" stroke="rgba(59, 17, 119, 1)" stroke-width="1.5"></path><path d="M964.96 -92.75L1007.75 86.51" stroke="rgba(59, 17, 119, 1)" stroke-width="1.5"></path><path d="M964.96 -92.75L1128.79 58.04" stroke="rgba(59, 17, 119, 1)" stroke-width="1.5"></path><path d="M964.96 -92.75L981.38 190.26" stroke="rgba(59, 17, 119, 1)" stroke-width="1.5"></path><path d="M1007.75 86.51L1007.75 86.51" stroke="rgba(59, 17, 119, 1)" stroke-width="1.5"></path><path d="M1007.75 86.51L981.38 190.26" stroke="rgba(59, 17, 119, 1)" stroke-width="1.5"></path><path d="M1007.75 86.51L1128.79 58.04" stroke="rgba(59, 17, 119, 1)" stroke-width="1.5"></path><path d="M1007.75 86.51L1095.31 244.25" stroke="rgba(59, 17, 119, 1)" stroke-width="1.5"></path><path d="M1007.75 86.51L833.39 216.8" stroke="rgba(59, 17, 119, 1)" stroke-width="1.5"></path><path d="M981.38 190.26L981.38 190.26" stroke="rgba(59, 17, 119, 1)" stroke-width="1.5"></path><path d="M981.38 190.26L1095.31 244.25" stroke="rgba(59, 17, 119, 1)" stroke-width="1.5"></path><path d="M981.38 190.26L943.91 357.71" stroke="rgba(59, 17, 119, 1)" stroke-width="1.5"></path><path d="M943.91 357.71L943.91 357.71" stroke="rgba(59, 17, 119, 1)" stroke-width="1.5"></path><path d="M962.17 549.24L962.17 549.24" stroke="rgba(59, 17, 119, 1)" stroke-width="1.5"></path><path d="M962.17 549.24L994.85 670.25" stroke="rgba(59, 17, 119, 1)" stroke-width="1.5"></path><path d="M962.17 549.24L1139.49 488.65" stroke="rgba(59, 17, 119, 1)" stroke-width="1.5"></path><path d="M994.85 670.25L994.85 670.25" stroke="rgba(59, 17, 119, 1)" stroke-width="1.5"></path><path d="M994.85 670.25L1124.58 673.43" stroke="rgba(59, 17, 119, 1)" stroke-width="1.5"></path><path d="M1133.06 -105.54L1133.06 -105.54" stroke="rgba(59, 17, 119, 1)" stroke-width="1.5"></path><path d="M1133.06 -105.54L1286.8 -79.76" stroke="rgba(59, 17, 119, 1)" stroke-width="1.5"></path><path d="M1133.06 -105.54L1128.79 58.04" stroke="rgba(59, 17, 119, 1)" stroke-width="1.5"></path><path d="M1133.06 -105.54L1007.75 86.51" stroke="rgba(59, 17, 119, 1)" stroke-width="1.5"></path><path d="M1133.06 -105.54L1304.03 107.42" stroke="rgba(59, 17, 119, 1)" stroke-width="1.5"></path><path d="M1133.06 -105.54L1430.69 -44.12" stroke="rgba(59, 17, 119, 1)" stroke-width="1.5"></path><path d="M1128.79 58.04L1128.79 58.04" stroke="rgba(59, 17, 119, 1)" stroke-width="1.5"></path><path d="M1095.31 244.25L1095.31 244.25" stroke="rgba(59, 17, 119, 1)" stroke-width="1.5"></path><path d="M1095.31 244.25L1139.79 374.19" stroke="rgba(59, 17, 119, 1)" stroke-width="1.5"></path><path d="M1095.31 244.25L1128.79 58.04" stroke="rgba(59, 17, 119, 1)" stroke-width="1.5"></path><path d="M1095.31 244.25L943.91 357.71" stroke="rgba(59, 17, 119, 1)" stroke-width="1.5"></path><path d="M1095.31 244.25L1290.86 195.58" stroke="rgba(59, 17, 119, 1)" stroke-width="1.5"></path><path d="M1139.79 374.19L1139.79 374.19" stroke="rgba(59, 17, 119, 1)" stroke-width="1.5"></path><path d="M1139.79 374.19L1139.49 488.65" stroke="rgba(59, 17, 119, 1)" stroke-width="1.5"></path><path d="M1139.79 374.19L1254.17 384.46" stroke="rgba(59, 17, 119, 1)" stroke-width="1.5"></path><path d="M1139.79 374.19L943.91 357.71" stroke="rgba(59, 17, 119, 1)" stroke-width="1.5"></path><path d="M1139.79 374.19L1264.18 546.11" stroke="rgba(59, 17, 119, 1)" stroke-width="1.5"></path><path d="M1139.49 488.65L1139.49 488.65" stroke="rgba(59, 17, 119, 1)" stroke-width="1.5"></path><path d="M1139.49 488.65L1264.18 546.11" stroke="rgba(59, 17, 119, 1)" stroke-width="1.5"></path><path d="M1139.49 488.65L1254.17 384.46" stroke="rgba(59, 17, 119, 1)" stroke-width="1.5"></path><path d="M1139.49 488.65L1124.58 673.43" stroke="rgba(59, 17, 119, 1)" stroke-width="1.5"></path><path d="M1139.49 488.65L994.85 670.25" stroke="rgba(59, 17, 119, 1)" stroke-width="1.5"></path><path d="M1124.58 673.43L1124.58 673.43" stroke="rgba(59, 17, 119, 1)" stroke-width="1.5"></path><path d="M1124.58 673.43L1308.22 687.14" stroke="rgba(59, 17, 119, 1)" stroke-width="1.5"></path><path d="M1286.8 -79.76L1286.8 -79.76" stroke="rgba(59, 17, 119, 1)" stroke-width="1.5"></path><path d="M1286.8 -79.76L1430.69 -44.12" stroke="rgba(59, 17, 119, 1)" stroke-width="1.5"></path><path d="M1286.8 -79.76L1304.03 107.42" stroke="rgba(59, 17, 119, 1)" stroke-width="1.5"></path><path d="M1286.8 -79.76L1128.79 58.04" stroke="rgba(59, 17, 119, 1)" stroke-width="1.5"></path><path d="M1286.8 -79.76L1550.36 -53.66" stroke="rgba(59, 17, 119, 1)" stroke-width="1.5"></path><path d="M1286.8 -79.76L1290.86 195.58" stroke="rgba(59, 17, 119, 1)" stroke-width="1.5"></path><path d="M1304.03 107.42L1304.03 107.42" stroke="rgba(59, 17, 119, 1)" stroke-width="1.5"></path><path d="M1304.03 107.42L1290.86 195.58" stroke="rgba(59, 17, 119, 1)" stroke-width="1.5"></path><path d="M1304.03 107.42L1128.79 58.04" stroke="rgba(59, 17, 119, 1)" stroke-width="1.5"></path><path d="M1304.03 107.42L1430.69 -44.12" stroke="rgba(59, 17, 119, 1)" stroke-width="1.5"></path><path d="M1304.03 107.42L1449.43 243.51" stroke="rgba(59, 17, 119, 1)" stroke-width="1.5"></path><path d="M1304.03 107.42L1095.31 244.25" stroke="rgba(59, 17, 119, 1)" stroke-width="1.5"></path><path d="M1290.86 195.58L1290.86 195.58" stroke="rgba(59, 17, 119, 1)" stroke-width="1.5"></path><path d="M1290.86 195.58L1449.43 243.51" stroke="rgba(59, 17, 119, 1)" stroke-width="1.5"></path><path d="M1254.17 384.46L1254.17 384.46" stroke="rgba(59, 17, 119, 1)" stroke-width="1.5"></path><path d="M1254.17 384.46L1398.51 367.01" stroke="rgba(59, 17, 119, 1)" stroke-width="1.5"></path><path d="M1264.18 546.11L1264.18 546.11" stroke="rgba(59, 17, 119, 1)" stroke-width="1.5"></path><path d="M1264.18 546.11L1397.38 494.27" stroke="rgba(59, 17, 119, 1)" stroke-width="1.5"></path><path d="M1264.18 546.11L1308.22 687.14" stroke="rgba(59, 17, 119, 1)" stroke-width="1.5"></path><path d="M1308.22 687.14L1308.22 687.14" stroke="rgba(59, 17, 119, 1)" stroke-width="1.5"></path><path d="M1308.22 687.14L1443.51 696.61" stroke="rgba(59, 17, 119, 1)" stroke-width="1.5"></path><path d="M1430.69 -44.12L1430.69 -44.12" stroke="rgba(59, 17, 119, 1)" stroke-width="1.5"></path><path d="M1430.69 -44.12L1550.36 -53.66" stroke="rgba(59, 17, 119, 1)" stroke-width="1.5"></path><path d="M1430.69 -44.12L1582.02 42.37" stroke="rgba(59, 17, 119, 1)" stroke-width="1.5"></path><path d="M1430.69 -44.12L1544.28 207.46" stroke="rgba(59, 17, 119, 1)" stroke-width="1.5"></path><path d="M1449.43 243.51L1449.43 243.51" stroke="rgba(59, 17, 119, 1)" stroke-width="1.5"></path><path d="M1449.43 243.51L1544.28 207.46" stroke="rgba(59, 17, 119, 1)" stroke-width="1.5"></path><path d="M1449.43 243.51L1398.51 367.01" stroke="rgba(59, 17, 119, 1)" stroke-width="1.5"></path><path d="M1398.51 367.01L1398.51 367.01" stroke="rgba(59, 17, 119, 1)" stroke-width="1.5"></path><path d="M1398.51 367.01L1397.38 494.27" stroke="rgba(59, 17, 119, 1)" stroke-width="1.5"></path><path d="M1397.38 494.27L1397.38 494.27" stroke="rgba(59, 17, 119, 1)" stroke-width="1.5"></path><path d="M1443.51 696.61L1443.51 696.61" stroke="rgba(59, 17, 119, 1)" stroke-width="1.5"></path><path d="M1443.51 696.61L1540.55 697.55" stroke="rgba(59, 17, 119, 1)" stroke-width="1.5"></path><path d="M1550.36 -53.66L1550.36 -53.66" stroke="rgba(59, 17, 119, 1)" stroke-width="1.5"></path><path d="M1550.36 -53.66L1582.02 42.37" stroke="rgba(59, 17, 119, 1)" stroke-width="1.5"></path><path d="M1550.36 -53.66L1544.28 207.46" stroke="rgba(59, 17, 119, 1)" stroke-width="1.5"></path><path d="M1550.36 -53.66L1304.03 107.42" stroke="rgba(59, 17, 119, 1)" stroke-width="1.5"></path><path d="M1582.02 42.37L1582.02 42.37" stroke="rgba(59, 17, 119, 1)" stroke-width="1.5"></path><path d="M1582.02 42.37L1544.28 207.46" stroke="rgba(59, 17, 119, 1)" stroke-width="1.5"></path><path d="M1544.28 207.46L1544.28 207.46" stroke="rgba(59, 17, 119, 1)" stroke-width="1.5"></path><path d="M1544.28 207.46L1590.24 339.28" stroke="rgba(59, 17, 119, 1)" stroke-width="1.5"></path><path d="M1544.28 207.46L1398.51 367.01" stroke="rgba(59, 17, 119, 1)" stroke-width="1.5"></path><path d="M1544.28 207.46L1290.86 195.58" stroke="rgba(59, 17, 119, 1)" stroke-width="1.5"></path><path d="M1590.24 339.28L1590.24 339.28" stroke="rgba(59, 17, 119, 1)" stroke-width="1.5"></path><path d="M1583.22 496.07L1583.22 496.07" stroke="rgba(59, 17, 119, 1)" stroke-width="1.5"></path><path d="M1583.22 496.07L1590.24 339.28" stroke="rgba(59, 17, 119, 1)" stroke-width="1.5"></path><path d="M1583.22 496.07L1397.38 494.27" stroke="rgba(59, 17, 119, 1)" stroke-width="1.5"></path><path d="M1583.22 496.07L1540.55 697.55" stroke="rgba(59, 17, 119, 1)" stroke-width="1.5"></path><path d="M1583.22 496.07L1398.51 367.01" stroke="rgba(59, 17, 119, 1)" stroke-width="1.5"></path><path d="M1583.22 496.07L1443.51 696.61" stroke="rgba(59, 17, 119, 1)" stroke-width="1.5"></path><path d="M1583.22 496.07L1449.43 243.51" stroke="rgba(59, 17, 119, 1)" stroke-width="1.5"></path><path d="M1540.55 697.55L1540.55 697.55" stroke="rgba(59, 17, 119, 1)" stroke-width="1.5"></path><circle r="5" cx="-106.39" cy="347.61" fill="rgba(59, 17, 119, 1)"></circle><circle r="5" cx="-79.5" cy="508.72" fill="rgba(59, 17, 119, 1)"></circle><circle r="5" cx="-61.62" cy="654.85" fill="rgba(59, 17, 119, 1)"></circle><circle r="5" cx="102.16" cy="508.46" fill="rgba(59, 17, 119, 1)"></circle><circle r="5" cx="59.63" cy="707.36" fill="rgba(59, 17, 119, 1)"></circle><circle r="5" cx="194.23" cy="371.29" fill="rgba(59, 17, 119, 1)"></circle><circle r="5" cx="192.6" cy="542.14" fill="rgba(59, 17, 119, 1)"></circle><circle r="5" cx="258.57" cy="678.63" fill="rgba(59, 17, 119, 1)"></circle><circle r="5" cx="410.91" cy="344.29" fill="rgba(59, 17, 119, 1)"></circle><circle r="5" cx="365.88" cy="506.67" fill="rgba(59, 17, 119, 1)"></circle><circle r="5" cx="348.34" cy="701.42" fill="rgba(59, 17, 119, 1)"></circle><circle r="5" cx="502.69" cy="376.33" fill="rgba(59, 17, 119, 1)"></circle><circle r="5" cx="525" cy="541.8" fill="rgba(59, 17, 119, 1)"></circle><circle r="5" cx="506.11" cy="682.29" fill="rgba(59, 17, 119, 1)"></circle><circle r="5" cx="642.94" cy="243.49" fill="rgba(59, 17, 119, 1)"></circle><circle r="5" cx="656.96" cy="537.27" fill="rgba(59, 17, 119, 1)"></circle><circle r="5" cx="638.89" cy="703.7" fill="rgba(59, 17, 119, 1)"></circle><circle r="5" cx="860.04" cy="94.81" fill="rgba(59, 17, 119, 1)"></circle><circle r="5" cx="833.39" cy="216.8" fill="rgba(59, 17, 119, 1)"></circle><circle r="5" cx="826.65" cy="396.95" fill="rgba(59, 17, 119, 1)"></circle><circle r="5" cx="844.93" cy="705.57" fill="rgba(59, 17, 119, 1)"></circle><circle r="5" cx="964.96" cy="-92.75" fill="rgba(59, 17, 119, 1)"></circle><circle r="5" cx="1007.75" cy="86.51" fill="rgba(59, 17, 119, 1)"></circle><circle r="5" cx="981.38" cy="190.26" fill="rgba(59, 17, 119, 1)"></circle><circle r="5" cx="943.91" cy="357.71" fill="rgba(59, 17, 119, 1)"></circle><circle r="5" cx="962.17" cy="549.24" fill="rgba(59, 17, 119, 1)"></circle><circle r="5" cx="994.85" cy="670.25" fill="rgba(59, 17, 119, 1)"></circle><circle r="5" cx="1133.06" cy="-105.54" fill="rgba(59, 17, 119, 1)"></circle><circle r="5" cx="1128.79" cy="58.04" fill="rgba(59, 17, 119, 1)"></circle><circle r="5" cx="1095.31" cy="244.25" fill="rgba(59, 17, 119, 1)"></circle><circle r="5" cx="1139.79" cy="374.19" fill="rgba(59, 17, 119, 1)"></circle><circle r="5" cx="1139.49" cy="488.65" fill="rgba(59, 17, 119, 1)"></circle><circle r="5" cx="1124.58" cy="673.43" fill="rgba(59, 17, 119, 1)"></circle><circle r="5" cx="1286.8" cy="-79.76" fill="rgba(59, 17, 119, 1)"></circle><circle r="5" cx="1304.03" cy="107.42" fill="rgba(59, 17, 119, 1)"></circle><circle r="5" cx="1290.86" cy="195.58" fill="rgba(59, 17, 119, 1)"></circle><circle r="5" cx="1254.17" cy="384.46" fill="rgba(59, 17, 119, 1)"></circle><circle r="5" cx="1264.18" cy="546.11" fill="rgba(59, 17, 119, 1)"></circle><circle r="5" cx="1308.22" cy="687.14" fill="rgba(59, 17, 119, 1)"></circle><circle r="5" cx="1430.69" cy="-44.12" fill="rgba(59, 17, 119, 1)"></circle><circle r="5" cx="1449.43" cy="243.51" fill="rgba(59, 17, 119, 1)"></circle><circle r="5" cx="1398.51" cy="367.01" fill="rgba(59, 17, 119, 1)"></circle><circle r="5" cx="1397.38" cy="494.27" fill="rgba(59, 17, 119, 1)"></circle><circle r="5" cx="1443.51" cy="696.61" fill="rgba(59, 17, 119, 1)"></circle><circle r="5" cx="1550.36" cy="-53.66" fill="rgba(59, 17, 119, 1)"></circle><circle r="5" cx="1582.02" cy="42.37" fill="rgba(59, 17, 119, 1)"></circle><circle r="5" cx="1544.28" cy="207.46" fill="rgba(59, 17, 119, 1)"></circle><circle r="5" cx="1590.24" cy="339.28" fill="rgba(59, 17, 119, 1)"></circle><circle r="5" cx="1583.22" cy="496.07" fill="rgba(59, 17, 119, 1)"></circle><circle r="5" cx="1540.55" cy="697.55" fill="rgba(59, 17, 119, 1)"></circle><path d="M692.63 676.05L692.63 676.05" stroke="hsl(258.5, 86.2%, 55.6%)" stroke-width="1.5"></path><path d="M692.63 676.05L639.48 554.84" stroke="hsl(258.5, 86.2%, 55.6%)" stroke-width="1.5"></path><path d="M692.63 676.05L840.37 681.48" stroke="hsl(258.5, 86.2%, 55.6%)" stroke-width="1.5"></path><path d="M692.63 676.05L514.45 658.72" stroke="hsl(258.5, 86.2%, 55.6%)" stroke-width="1.5"></path><path d="M692.63 676.05L558.21 541.77" stroke="hsl(258.5, 86.2%, 55.6%)" stroke-width="1.5"></path><path d="M692.63 676.05L399.86 667.02" stroke="hsl(258.5, 86.2%, 55.6%)" stroke-width="1.5"></path><path d="M692.63 676.05L1002.37 665.84" stroke="hsl(258.5, 86.2%, 55.6%)" stroke-width="1.5"></path><path d="M1006.81 403.37L1006.81 403.37" stroke="hsl(258.5, 86.2%, 55.6%)" stroke-width="1.5"></path><path d="M1006.81 403.37L1107.86 349.99" stroke="hsl(258.5, 86.2%, 55.6%)" stroke-width="1.5"></path><path d="M1006.81 403.37L993.21 526.6" stroke="hsl(258.5, 86.2%, 55.6%)" stroke-width="1.5"></path><path d="M993.21 526.6L993.21 526.6" stroke="hsl(258.5, 86.2%, 55.6%)" stroke-width="1.5"></path><path d="M993.21 526.6L1090.04 547.8" stroke="hsl(258.5, 86.2%, 55.6%)" stroke-width="1.5"></path><path d="M993.21 526.6L1002.37 665.84" stroke="hsl(258.5, 86.2%, 55.6%)" stroke-width="1.5"></path><path d="M993.21 526.6L1129.93 638.18" stroke="hsl(258.5, 86.2%, 55.6%)" stroke-width="1.5"></path><path d="M1097.85 251.17L1097.85 251.17" stroke="hsl(258.5, 86.2%, 55.6%)" stroke-width="1.5"></path><path d="M1097.85 251.17L1107.86 349.99" stroke="hsl(258.5, 86.2%, 55.6%)" stroke-width="1.5"></path><path d="M1097.85 251.17L1252.87 192.43" stroke="hsl(258.5, 86.2%, 55.6%)" stroke-width="1.5"></path><path d="M1097.85 251.17L1006.81 403.37" stroke="hsl(258.5, 86.2%, 55.6%)" stroke-width="1.5"></path><path d="M1097.85 251.17L1271.52 375.18" stroke="hsl(258.5, 86.2%, 55.6%)" stroke-width="1.5"></path><path d="M1097.85 251.17L1259.21 101.61" stroke="hsl(258.5, 86.2%, 55.6%)" stroke-width="1.5"></path><path d="M1097.85 251.17L1251.43 500.49" stroke="hsl(258.5, 86.2%, 55.6%)" stroke-width="1.5"></path><path d="M1129.93 638.18L1129.93 638.18" stroke="hsl(258.5, 86.2%, 55.6%)" stroke-width="1.5"></path><path d="M1129.93 638.18L1090.04 547.8" stroke="hsl(258.5, 86.2%, 55.6%)" stroke-width="1.5"></path><path d="M1129.93 638.18L1238.96 663.1" stroke="hsl(258.5, 86.2%, 55.6%)" stroke-width="1.5"></path><path d="M1129.93 638.18L1002.37 665.84" stroke="hsl(258.5, 86.2%, 55.6%)" stroke-width="1.5"></path><path d="M1129.93 638.18L1251.43 500.49" stroke="hsl(258.5, 86.2%, 55.6%)" stroke-width="1.5"></path><path d="M1129.93 638.18L1006.81 403.37" stroke="hsl(258.5, 86.2%, 55.6%)" stroke-width="1.5"></path><path d="M1252.87 192.43L1252.87 192.43" stroke="hsl(258.5, 86.2%, 55.6%)" stroke-width="1.5"></path><path d="M1252.87 192.43L1259.21 101.61" stroke="hsl(258.5, 86.2%, 55.6%)" stroke-width="1.5"></path><path d="M1252.87 192.43L1271.52 375.18" stroke="hsl(258.5, 86.2%, 55.6%)" stroke-width="1.5"></path><path d="M1271.52 375.18L1271.52 375.18" stroke="hsl(258.5, 86.2%, 55.6%)" stroke-width="1.5"></path><path d="M1271.52 375.18L1251.43 500.49" stroke="hsl(258.5, 86.2%, 55.6%)" stroke-width="1.5"></path><path d="M1271.52 375.18L1107.86 349.99" stroke="hsl(258.5, 86.2%, 55.6%)" stroke-width="1.5"></path><path d="M1251.43 500.49L1251.43 500.49" stroke="hsl(258.5, 86.2%, 55.6%)" stroke-width="1.5"></path><path d="M1251.43 500.49L1238.96 663.1" stroke="hsl(258.5, 86.2%, 55.6%)" stroke-width="1.5"></path><path d="M1251.43 500.49L1090.04 547.8" stroke="hsl(258.5, 86.2%, 55.6%)" stroke-width="1.5"></path><path d="M1238.96 663.1L1238.96 663.1" stroke="hsl(258.5, 86.2%, 55.6%)" stroke-width="1.5"></path><path d="M1588.57 -78.04L1588.57 -78.04" stroke="hsl(258.5, 86.2%, 55.6%)" stroke-width="1.5"></path><path d="M1588.57 -78.04L1579.78 60.56" stroke="hsl(258.5, 86.2%, 55.6%)" stroke-width="1.5"></path><path d="M1588.57 -78.04L1460.08 37.88" stroke="hsl(258.5, 86.2%, 55.6%)" stroke-width="1.5"></path><path d="M1588.57 -78.04L1606.23 220.49" stroke="hsl(258.5, 86.2%, 55.6%)" stroke-width="1.5"></path><path d="M1588.57 -78.04L1272.75 -43.81" stroke="hsl(258.5, 86.2%, 55.6%)" stroke-width="1.5"></path><path d="M1588.57 -78.04L1440.92 206.12" stroke="hsl(258.5, 86.2%, 55.6%)" stroke-width="1.5"></path><path d="M1588.57 -78.04L1259.21 101.61" stroke="hsl(258.5, 86.2%, 55.6%)" stroke-width="1.5"></path><path d="M-109.26 562.04L-109.26 562.04" stroke="hsl(258.5, 86.2%, 55.6%)" stroke-width="1.5"></path><path d="M-109.26 562.04L-48.18 672.04" stroke="hsl(258.5, 86.2%, 55.6%)" stroke-width="1.5"></path><path d="M-109.26 562.04L59.34 670.7" stroke="hsl(258.5, 86.2%, 55.6%)" stroke-width="1.5"></path><path d="M-48.18 672.04L-48.18 672.04" stroke="hsl(258.5, 86.2%, 55.6%)" stroke-width="1.5"></path><path d="M-48.18 672.04L59.34 670.7" stroke="hsl(258.5, 86.2%, 55.6%)" stroke-width="1.5"></path><path d="M-48.18 672.04L101.81 503.4" stroke="hsl(258.5, 86.2%, 55.6%)" stroke-width="1.5"></path><path d="M-48.18 672.04L233.09 550.32" stroke="hsl(258.5, 86.2%, 55.6%)" stroke-width="1.5"></path><path d="M-48.18 672.04L399.86 667.02" stroke="hsl(258.5, 86.2%, 55.6%)" stroke-width="1.5"></path><path d="M101.81 503.4L101.81 503.4" stroke="hsl(258.5, 86.2%, 55.6%)" stroke-width="1.5"></path><path d="M101.81 503.4L233.09 550.32" stroke="hsl(258.5, 86.2%, 55.6%)" stroke-width="1.5"></path><path d="M101.81 503.4L59.34 670.7" stroke="hsl(258.5, 86.2%, 55.6%)" stroke-width="1.5"></path><path d="M101.81 503.4L-109.26 562.04" stroke="hsl(258.5, 86.2%, 55.6%)" stroke-width="1.5"></path><path d="M59.34 670.7L59.34 670.7" stroke="hsl(258.5, 86.2%, 55.6%)" stroke-width="1.5"></path><path d="M233.09 550.32L233.09 550.32" stroke="hsl(258.5, 86.2%, 55.6%)" stroke-width="1.5"></path><path d="M233.09 550.32L380.98 537.59" stroke="hsl(258.5, 86.2%, 55.6%)" stroke-width="1.5"></path><path d="M233.09 550.32L399.86 667.02" stroke="hsl(258.5, 86.2%, 55.6%)" stroke-width="1.5"></path><path d="M233.09 550.32L59.34 670.7" stroke="hsl(258.5, 86.2%, 55.6%)" stroke-width="1.5"></path><path d="M233.09 550.32L514.45 658.72" stroke="hsl(258.5, 86.2%, 55.6%)" stroke-width="1.5"></path><path d="M380.98 537.59L380.98 537.59" stroke="hsl(258.5, 86.2%, 55.6%)" stroke-width="1.5"></path><path d="M380.98 537.59L399.86 667.02" stroke="hsl(258.5, 86.2%, 55.6%)" stroke-width="1.5"></path><path d="M399.86 667.02L399.86 667.02" stroke="hsl(258.5, 86.2%, 55.6%)" stroke-width="1.5"></path><path d="M399.86 667.02L514.45 658.72" stroke="hsl(258.5, 86.2%, 55.6%)" stroke-width="1.5"></path><path d="M399.86 667.02L558.21 541.77" stroke="hsl(258.5, 86.2%, 55.6%)" stroke-width="1.5"></path><path d="M399.86 667.02L639.48 554.84" stroke="hsl(258.5, 86.2%, 55.6%)" stroke-width="1.5"></path><path d="M511.42 401.57L511.42 401.57" stroke="hsl(258.5, 86.2%, 55.6%)" stroke-width="1.5"></path><path d="M511.42 401.57L558.21 541.77" stroke="hsl(258.5, 86.2%, 55.6%)" stroke-width="1.5"></path><path d="M511.42 401.57L380.98 537.59" stroke="hsl(258.5, 86.2%, 55.6%)" stroke-width="1.5"></path><path d="M511.42 401.57L639.48 554.84" stroke="hsl(258.5, 86.2%, 55.6%)" stroke-width="1.5"></path><path d="M511.42 401.57L514.45 658.72" stroke="hsl(258.5, 86.2%, 55.6%)" stroke-width="1.5"></path><path d="M558.21 541.77L558.21 541.77" stroke="hsl(258.5, 86.2%, 55.6%)" stroke-width="1.5"></path><path d="M558.21 541.77L639.48 554.84" stroke="hsl(258.5, 86.2%, 55.6%)" stroke-width="1.5"></path><path d="M558.21 541.77L514.45 658.72" stroke="hsl(258.5, 86.2%, 55.6%)" stroke-width="1.5"></path><path d="M514.45 658.72L514.45 658.72" stroke="hsl(258.5, 86.2%, 55.6%)" stroke-width="1.5"></path><path d="M514.45 658.72L639.48 554.84" stroke="hsl(258.5, 86.2%, 55.6%)" stroke-width="1.5"></path><path d="M514.45 658.72L380.98 537.59" stroke="hsl(258.5, 86.2%, 55.6%)" stroke-width="1.5"></path><path d="M639.48 554.84L639.48 554.84" stroke="hsl(258.5, 86.2%, 55.6%)" stroke-width="1.5"></path><path d="M790.3 351.46L790.3 351.46" stroke="hsl(258.5, 86.2%, 55.6%)" stroke-width="1.5"></path><path d="M790.3 351.46L1006.81 403.37" stroke="hsl(258.5, 86.2%, 55.6%)" stroke-width="1.5"></path><path d="M790.3 351.46L639.48 554.84" stroke="hsl(258.5, 86.2%, 55.6%)" stroke-width="1.5"></path><path d="M840.37 681.48L840.37 681.48" stroke="hsl(258.5, 86.2%, 55.6%)" stroke-width="1.5"></path><path d="M840.37 681.48L1002.37 665.84" stroke="hsl(258.5, 86.2%, 55.6%)" stroke-width="1.5"></path><path d="M1002.37 665.84L1002.37 665.84" stroke="hsl(258.5, 86.2%, 55.6%)" stroke-width="1.5"></path><path d="M1002.37 665.84L1090.04 547.8" stroke="hsl(258.5, 86.2%, 55.6%)" stroke-width="1.5"></path><path d="M1107.86 349.99L1107.86 349.99" stroke="hsl(258.5, 86.2%, 55.6%)" stroke-width="1.5"></path><path d="M1090.04 547.8L1090.04 547.8" stroke="hsl(258.5, 86.2%, 55.6%)" stroke-width="1.5"></path><path d="M1272.75 -43.81L1272.75 -43.81" stroke="hsl(258.5, 86.2%, 55.6%)" stroke-width="1.5"></path><path d="M1272.75 -43.81L1259.21 101.61" stroke="hsl(258.5, 86.2%, 55.6%)" stroke-width="1.5"></path><path d="M1272.75 -43.81L1460.08 37.88" stroke="hsl(258.5, 86.2%, 55.6%)" stroke-width="1.5"></path><path d="M1272.75 -43.81L1252.87 192.43" stroke="hsl(258.5, 86.2%, 55.6%)" stroke-width="1.5"></path><path d="M1259.21 101.61L1259.21 101.61" stroke="hsl(258.5, 86.2%, 55.6%)" stroke-width="1.5"></path><path d="M1460.08 37.88L1460.08 37.88" stroke="hsl(258.5, 86.2%, 55.6%)" stroke-width="1.5"></path><path d="M1460.08 37.88L1579.78 60.56" stroke="hsl(258.5, 86.2%, 55.6%)" stroke-width="1.5"></path><path d="M1460.08 37.88L1440.92 206.12" stroke="hsl(258.5, 86.2%, 55.6%)" stroke-width="1.5"></path><path d="M1460.08 37.88L1259.21 101.61" stroke="hsl(258.5, 86.2%, 55.6%)" stroke-width="1.5"></path><path d="M1460.08 37.88L1606.23 220.49" stroke="hsl(258.5, 86.2%, 55.6%)" stroke-width="1.5"></path><path d="M1440.92 206.12L1440.92 206.12" stroke="hsl(258.5, 86.2%, 55.6%)" stroke-width="1.5"></path><path d="M1440.92 206.12L1606.23 220.49" stroke="hsl(258.5, 86.2%, 55.6%)" stroke-width="1.5"></path><path d="M1440.92 206.12L1252.87 192.43" stroke="hsl(258.5, 86.2%, 55.6%)" stroke-width="1.5"></path><path d="M1440.92 206.12L1440.23 400.79" stroke="hsl(258.5, 86.2%, 55.6%)" stroke-width="1.5"></path><path d="M1440.92 206.12L1579.78 60.56" stroke="hsl(258.5, 86.2%, 55.6%)" stroke-width="1.5"></path><path d="M1440.23 400.79L1440.23 400.79" stroke="hsl(258.5, 86.2%, 55.6%)" stroke-width="1.5"></path><path d="M1440.23 400.79L1548.34 406.93" stroke="hsl(258.5, 86.2%, 55.6%)" stroke-width="1.5"></path><path d="M1440.23 400.79L1453.01 551.81" stroke="hsl(258.5, 86.2%, 55.6%)" stroke-width="1.5"></path><path d="M1453.01 551.81L1453.01 551.81" stroke="hsl(258.5, 86.2%, 55.6%)" stroke-width="1.5"></path><path d="M1453.01 551.81L1448.82 643.7" stroke="hsl(258.5, 86.2%, 55.6%)" stroke-width="1.5"></path><path d="M1453.01 551.81L1585.35 547.42" stroke="hsl(258.5, 86.2%, 55.6%)" stroke-width="1.5"></path><path d="M1453.01 551.81L1548.34 406.93" stroke="hsl(258.5, 86.2%, 55.6%)" stroke-width="1.5"></path><path d="M1448.82 643.7L1448.82 643.7" stroke="hsl(258.5, 86.2%, 55.6%)" stroke-width="1.5"></path><path d="M1448.82 643.7L1572.43 694.22" stroke="hsl(258.5, 86.2%, 55.6%)" stroke-width="1.5"></path><path d="M1448.82 643.7L1585.35 547.42" stroke="hsl(258.5, 86.2%, 55.6%)" stroke-width="1.5"></path><path d="M1448.82 643.7L1238.96 663.1" stroke="hsl(258.5, 86.2%, 55.6%)" stroke-width="1.5"></path><path d="M1448.82 643.7L1440.23 400.79" stroke="hsl(258.5, 86.2%, 55.6%)" stroke-width="1.5"></path><path d="M1448.82 643.7L1251.43 500.49" stroke="hsl(258.5, 86.2%, 55.6%)" stroke-width="1.5"></path><path d="M1579.78 60.56L1579.78 60.56" stroke="hsl(258.5, 86.2%, 55.6%)" stroke-width="1.5"></path><path d="M1606.23 220.49L1606.23 220.49" stroke="hsl(258.5, 86.2%, 55.6%)" stroke-width="1.5"></path><path d="M1606.23 220.49L1579.78 60.56" stroke="hsl(258.5, 86.2%, 55.6%)" stroke-width="1.5"></path><path d="M1548.34 406.93L1548.34 406.93" stroke="hsl(258.5, 86.2%, 55.6%)" stroke-width="1.5"></path><path d="M1548.34 406.93L1585.35 547.42" stroke="hsl(258.5, 86.2%, 55.6%)" stroke-width="1.5"></path><path d="M1585.35 547.42L1585.35 547.42" stroke="hsl(258.5, 86.2%, 55.6%)" stroke-width="1.5"></path><path d="M1585.35 547.42L1572.43 694.22" stroke="hsl(258.5, 86.2%, 55.6%)" stroke-width="1.5"></path><path d="M1572.43 694.22L1572.43 694.22" stroke="hsl(258.5, 86.2%, 55.6%)" stroke-width="1.5"></path><path d="M1572.43 694.22L1453.01 551.81" stroke="hsl(258.5, 86.2%, 55.6%)" stroke-width="1.5"></path><path d="M1572.43 694.22L1548.34 406.93" stroke="hsl(258.5, 86.2%, 55.6%)" stroke-width="1.5"></path><circle r="25" cx="692.63" cy="676.05" fill="url(#SvgjsRadialGradient1007)"></circle><circle r="25" cx="1006.81" cy="403.37" fill="url(#SvgjsRadialGradient1007)"></circle><circle r="25" cx="993.21" cy="526.6" fill="url(#SvgjsRadialGradient1007)"></circle><circle r="25" cx="1097.85" cy="251.17" fill="url(#SvgjsRadialGradient1007)"></circle><circle r="25" cx="1129.93" cy="638.18" fill="url(#SvgjsRadialGradient1007)"></circle><circle r="25" cx="1252.87" cy="192.43" fill="url(#SvgjsRadialGradient1007)"></circle><circle r="25" cx="1271.52" cy="375.18" fill="url(#SvgjsRadialGradient1007)"></circle><circle r="25" cx="1251.43" cy="500.49" fill="url(#SvgjsRadialGradient1007)"></circle><circle r="25" cx="1238.96" cy="663.1" fill="url(#SvgjsRadialGradient1007)"></circle><circle r="25" cx="1588.57" cy="-78.04" fill="url(#SvgjsRadialGradient1007)"></circle><circle r="5" cx="-109.26" cy="562.04" fill="#a487e5"></circle><circle r="5" cx="-48.18" cy="672.04" fill="#a487e5"></circle><circle r="5" cx="101.81" cy="503.4" fill="#a487e5"></circle><circle r="5" cx="59.34" cy="670.7" fill="#a487e5"></circle><circle r="5" cx="233.09" cy="550.32" fill="#a487e5"></circle><circle r="5" cx="380.98" cy="537.59" fill="#a487e5"></circle><circle r="5" cx="399.86" cy="667.02" fill="#a487e5"></circle><circle r="5" cx="511.42" cy="401.57" fill="#a487e5"></circle><circle r="5" cx="558.21" cy="541.77" fill="#a487e5"></circle><circle r="5" cx="514.45" cy="658.72" fill="#a487e5"></circle><circle r="5" cx="639.48" cy="554.84" fill="#a487e5"></circle><circle r="5" cx="790.3" cy="351.46" fill="#a487e5"></circle><circle r="5" cx="840.37" cy="681.48" fill="#a487e5"></circle><circle r="5" cx="1002.37" cy="665.84" fill="#a487e5"></circle><circle r="5" cx="1107.86" cy="349.99" fill="#a487e5"></circle><circle r="5" cx="1090.04" cy="547.8" fill="#a487e5"></circle><circle r="5" cx="1272.75" cy="-43.81" fill="#a487e5"></circle><circle r="5" cx="1259.21" cy="101.61" fill="#a487e5"></circle><circle r="5" cx="1460.08" cy="37.88" fill="#a487e5"></circle><circle r="5" cx="1440.92" cy="206.12" fill="#a487e5"></circle><circle r="5" cx="1440.23" cy="400.79" fill="#a487e5"></circle><circle r="5" cx="1453.01" cy="551.81" fill="#a487e5"></circle><circle r="5" cx="1448.82" cy="643.7" fill="#a487e5"></circle><circle r="5" cx="1579.78" cy="60.56" fill="#a487e5"></circle><circle r="5" cx="1606.23" cy="220.49" fill="#a487e5"></circle><circle r="5" cx="1548.34" cy="406.93" fill="#a487e5"></circle><circle r="5" cx="1585.35" cy="547.42" fill="#a487e5"></circle><circle r="5" cx="1572.43" cy="694.22" fill="#a487e5"></circle></g><defs><mask id="SvgjsMask1006"><rect width="1440" height="560" fill="#ffffff"></rect></mask><radialGradient id="SvgjsRadialGradient1007"><stop stop-color="#ffffff" offset="0.1"></stop><stop stop-color="rgba(73, 15, 203, 1)" offset="0.2"></stop><stop stop-color="rgba(73, 15, 203, 0)" offset="1"></stop></radialGradient></defs></svg>